<svg width="64" height="43" viewBox="0 0 64 43" fill="none" xmlns="http://www.w3.org/2000/svg">
<path d="M25.8304 18.88C25.8304 18.88 31.8848 18.4096 31.8848 11.0112C31.8848 3.6032 26.9312 0 20.6528 0H0V41.3632H20.6528C20.6528 41.3632 33.264 41.776 33.264 29.152C33.2608 29.1488 33.8112 18.88 25.8304 18.88V18.88ZM9.1008 7.3472H20.6528C20.6528 7.3472 23.4624 7.3472 23.4624 11.648C23.4624 15.9552 21.8112 16.5792 19.936 16.5792H9.1008V7.3472ZM20.0672 34.0096H9.1008V22.9536H20.6528C20.6528 22.9536 24.8384 22.896 24.8384 28.6336C24.8384 33.472 21.712 33.9744 20.0672 34.0096V34.0096ZM50.0768 10.5184C34.8096 10.5184 34.8224 26.4128 34.8224 26.4128C34.8224 26.4128 33.7792 42.224 50.0768 42.224C50.0768 42.224 63.6544 43.0368 63.6544 31.2256H56.672C56.672 31.2256 56.9024 35.6768 50.3104 35.6768C50.3104 35.6768 43.3216 36.1632 43.3216 28.4768H63.8752C63.8784 28.4736 66.144 10.5184 50.0768 10.5184V10.5184ZM56.288 22.9536H43.2512C43.2512 22.9536 44.1024 16.5792 50.2336 16.5792C56.3648 16.5792 56.288 22.9536 56.288 22.9536V22.9536ZM57.9104 2.4288H41.536V7.5296H57.9104V2.4288Z" fill="white"/>
</svg>
