<svg width="54" height="53" viewBox="0 0 54 53" fill="none" xmlns="http://www.w3.org/2000/svg">
<path d="M40.501 23.1875V42.2344C40.501 42.7782 40.3919 43.3166 40.1799 43.819C39.9679 44.3213 39.6571 44.7778 39.2654 45.1623C38.8736 45.5468 38.4086 45.8518 37.8967 46.0599C37.3849 46.2679 36.8363 46.375 36.2823 46.375H10.9699C9.85107 46.375 8.77802 45.9388 7.98686 45.1623C7.19569 44.3858 6.75122 43.3326 6.75122 42.2344V17.3907C6.75122 16.2925 7.19569 15.2393 7.98686 14.4628C8.77802 13.6863 9.85107 13.25 10.9699 13.25H28.6337" stroke="white" stroke-width="2" stroke-linecap="round" stroke-linejoin="round"/>
<path d="M35.4406 6.625H47.2526V18.2188" stroke="white" stroke-width="2" stroke-linecap="round" stroke-linejoin="round"/>
<path d="M23.6265 29.8125L46.4079 7.45312" stroke="white" stroke-width="2" stroke-linecap="round" stroke-linejoin="round"/>
</svg>
