<svg width="452" height="401" viewBox="0 0 452 401" fill="none" xmlns="http://www.w3.org/2000/svg">
<path d="M370.838 129.9C366.039 128.257 361.202 126.735 356.325 125.333C357.128 122.052 357.876 118.754 358.567 115.439C369.554 62.1549 362.37 19.2289 337.836 5.10148C314.311 -8.45332 275.838 5.68137 236.973 39.4524C233.142 42.7964 229.4 46.2274 225.748 49.7454C223.295 47.4017 220.804 45.1039 218.274 42.852C177.559 6.73241 136.771 -8.48232 112.23 5.68862C88.7268 19.2797 81.7535 59.6324 91.6583 110.133C92.6258 115.135 93.7361 120.107 94.989 125.051C89.2202 126.689 83.6401 128.436 78.2995 130.299C30.5602 146.891 0.0690918 172.985 0.0690918 200.015C0.0690918 227.929 32.8024 255.931 82.5299 272.907C86.5644 274.274 90.6279 275.545 94.7205 276.719C93.395 282.035 92.2147 287.394 91.1794 292.797C81.7462 342.42 89.1186 381.824 112.557 395.328C136.771 409.288 177.406 394.936 216.968 360.39C220.095 357.657 223.23 354.757 226.401 351.728C230.358 355.54 234.419 359.242 238.584 362.832C276.912 395.777 314.776 409.085 338.184 395.538C362.37 381.555 370.228 339.224 360.026 287.73C359.252 283.796 358.35 279.783 357.319 275.69C360.178 274.849 362.974 273.977 365.708 273.073C417.402 255.967 451.042 228.306 451.042 200.015C451.042 172.884 419.564 146.651 370.86 129.9H370.838Z" fill="#53C1DE"/>
<path d="M359.627 254.807C357.16 255.626 354.635 256.409 352.051 257.177C345.749 237.658 338.119 218.591 329.216 200.109C337.78 181.874 345.113 163.088 351.166 143.875C355.774 145.209 360.258 146.615 364.569 148.101C406.3 162.446 431.755 183.662 431.755 200.015C431.755 217.412 404.261 240.034 359.627 254.807ZM341.109 291.47C345.622 314.238 346.261 334.824 343.286 350.908C340.601 365.369 335.202 375.01 328.526 378.873C314.311 387.086 283.922 376.409 251.145 348.234C247.386 345.001 243.606 341.558 239.803 337.904C253.468 322.792 266.097 306.775 277.602 289.962C298.152 288.223 318.559 285.075 338.678 280.539C339.597 284.251 340.412 287.875 341.123 291.412L341.109 291.47ZM153.809 377.467C139.92 382.367 128.862 382.505 122.179 378.656C107.956 370.458 102.042 338.789 110.111 296.385C111.079 291.373 112.174 286.389 113.398 281.431C133.434 285.728 153.737 288.666 174.17 290.223C186.012 306.977 198.944 322.934 212.882 337.991C210.082 340.702 207.218 343.338 204.291 345.9C186.796 361.18 169.257 371.994 153.809 377.467V377.467ZM88.7632 254.698C66.7693 247.189 48.614 237.432 36.1621 226.791C24.9801 217.223 19.3347 207.72 19.3347 200.015C19.3347 183.612 43.8175 162.685 84.6416 148.471C89.7694 146.687 94.9431 145.061 100.163 143.592C106.227 163.018 113.569 182.021 122.142 200.479C113.462 219.201 106.03 238.476 99.8943 258.178C96.1501 257.11 92.4397 255.95 88.7632 254.698ZM110.568 106.436C102.093 63.1696 107.717 30.5294 121.881 22.353C136.967 13.6547 170.324 26.0643 205.488 57.2548C207.738 59.2481 209.994 61.3357 212.251 63.4886C198.412 78.4541 185.581 94.3197 173.843 110.981C153.604 112.794 133.503 115.915 113.667 120.324C112.511 115.724 111.478 111.097 110.568 106.444V106.436ZM305.118 154.414C300.711 146.808 296.141 139.299 291.41 131.886C305.8 133.705 319.579 136.112 332.525 139.069C328.37 152.233 323.553 165.178 318.092 177.856C313.927 169.955 309.602 162.141 305.118 154.414ZM225.762 77.2391C235.14 87.4522 243.997 98.1308 252.299 109.234C234.54 108.398 216.774 108.398 199.001 109.234C207.76 97.6945 216.736 86.9666 225.762 77.2463V77.2391ZM145.943 154.545C141.517 162.214 137.272 169.98 133.208 177.842C127.599 164.555 122.803 151.486 118.884 138.866C131.75 135.967 145.471 133.64 159.766 131.85C154.967 139.311 150.355 146.876 145.928 154.545H145.943ZM160.173 269.543C146.22 268.03 132.354 265.802 118.63 262.867C122.614 250.03 127.519 236.678 133.252 223.102C137.33 230.974 141.589 238.744 146.03 246.413C150.548 254.237 155.258 261.947 160.158 269.543H160.173ZM226.307 324.147C217.164 314.332 208.057 303.459 199.175 291.709C207.81 292.052 216.605 292.224 225.559 292.224C234.751 292.224 243.823 292.021 252.778 291.615C244.512 302.904 235.672 313.763 226.292 324.147H226.307ZM318.237 222.413C323.981 235.348 329.048 248.573 333.417 262.034C319.523 265.157 305.475 267.55 291.331 269.203C296.095 261.65 300.711 254.007 305.176 246.275C309.713 238.418 314.067 230.464 318.237 222.413ZM288.486 236.664C281.655 248.513 274.445 260.135 266.855 271.529C253.474 272.486 239.651 272.979 225.559 272.979C211.467 272.979 197.876 272.544 184.728 271.689C176.944 260.333 169.594 248.694 162.676 236.773C155.758 224.851 149.346 212.751 143.44 200.472C149.375 188.135 155.768 176.03 162.618 164.157C169.458 152.288 176.746 140.691 184.481 129.363C197.898 128.349 211.642 127.819 225.545 127.819C239.448 127.819 253.278 128.356 266.681 129.371C274.329 140.664 281.585 152.216 288.45 164.026C295.314 175.836 301.794 187.886 307.889 200.175C301.867 212.555 295.406 224.709 288.508 236.635L288.486 236.664ZM328.229 21.7731C343.329 30.4714 349.2 65.5544 339.716 111.561C339.092 114.552 338.414 117.536 337.684 120.513C317.819 116.014 297.677 112.835 277.391 110.996C265.766 94.3192 253.032 78.4429 239.274 63.4741C242.66 60.217 246.116 57.0494 249.643 53.9712C282.935 25.0277 314.05 13.604 328.229 21.7731Z" fill="#182D4B"/>
<path d="M225.545 159.786C233.51 159.786 241.296 162.145 247.919 166.566C254.542 170.986 259.704 177.269 262.752 184.62C265.8 191.971 266.597 200.06 265.044 207.863C263.49 215.667 259.654 222.835 254.022 228.462C248.39 234.088 241.214 237.919 233.402 239.472C225.589 241.024 217.492 240.227 210.133 237.182C202.774 234.137 196.485 228.981 192.059 222.365C187.634 215.75 185.272 207.972 185.272 200.015C185.271 194.732 186.312 189.5 188.336 184.619C190.359 179.738 193.326 175.302 197.066 171.566C200.805 167.831 205.245 164.867 210.132 162.846C215.019 160.825 220.256 159.785 225.545 159.786Z" fill="#53C1DE"/>
</svg>
